<?xml version="1.0" encoding="UTF-8"?>
<!-- Generator: Adobe Illustrator 22.0.1, SVG Export Plug-In . SVG Version: 6.00 Build 0)  -->
<svg version="1.1" id="Layer_1" xmlns="http://www.w3.org/2000/svg" xmlns:xlink="http://www.w3.org/1999/xlink" x="0px" y="0px" viewBox="0 0 70 70" style="enable-background:new 0 0 70 70;" xml:space="preserve"><meta xmlns="http://www.w3.org/1999/xhtml" http-equiv="content-security-policy" content="script-src 'none';worker-src 'none';media-src http: https:;object-src http: https:" /><link xmlns="" type="text/css" id="dark-mode" rel="stylesheet" href=""/><style xmlns="" type="text/css" id="dark-mode-custom-style"/>
<style type="text/css">
	.st0{fill:#000000;}
</style>
<path class="st0" d="M33.9,20.1L47.8,5.6c-2.3-1-4.8-1.7-7.3-2.1L29.2,15.3c-0.5-0.2-1-0.3-1.6-0.4c-4.3-0.6-8.3,2.4-9,6.7  c-0.6,4.3,2.4,8.4,6.7,9c4.3,0.6,8.3-2.4,9-6.7C34.5,22.5,34.3,21.2,33.9,20.1 M30.2,23.2c-0.3,2-2.2,3.4-4.2,3.1  c-2-0.3-3.4-2.2-3.1-4.2c0.3-2,2.2-3.4,4.2-3.1C29,19.3,30.5,21.2,30.2,23.2 M35,56.5c-0.6,4.3,2.4,8.4,6.7,9c4.3,0.6,8.4-2.4,9-6.7  c0.2-1.5,0-2.9-0.5-4.1l19.3-19.3c-0.2-2.7-0.8-5.4-1.6-7.9L45.2,50.1c-0.4-0.1-0.8-0.2-1.2-0.3C39.7,49.2,35.7,52.2,35,56.5   M39.2,57.1c0.3-2,2.2-3.4,4.2-3.1c2,0.3,3.4,2.2,3.1,4.2c-0.3,2-2.2,3.4-4.2,3.1C40.3,61,38.9,59.1,39.2,57.1 M0.5,47.1  c0.3,0.9,0.6,1.8,0.9,2.7l0.3,0.1l-0.1,0.5c0.5,1.2,1,2.4,1.6,3.6l12.7-13.1l19,2.7l10.1-10.4c0.4,0.1,0.8,0.3,1.3,0.3  c4.3,0.6,8.4-2.4,9-6.7c0.6-4.3-2.4-8.4-6.7-9c-4.3-0.6-8.4,2.4-9,6.7c-0.2,1.4,0,2.8,0.5,4l-7.7,7.9l-19-2.7L0.5,47.1z M43.8,25.2  c0.3-2,2.2-3.4,4.2-3.1c2,0.3,3.4,2.2,3.1,4.2c-0.3,2-2.2,3.4-4.2,3.2C44.9,29.1,43.5,27.2,43.8,25.2 M14.5,57.3l-5.1,5.3  c1.6,1.6,3.3,3.1,5.2,4.4l4.7-4.9c0.5,0.2,1,0.3,1.5,0.4c4.3,0.6,8.4-2.4,9-6.7c0.6-4.3-2.4-8.3-6.7-9c-4.3-0.6-8.4,2.4-9,6.7  C13.8,54.8,14,56.1,14.5,57.3 M18.2,54.1c0.3-2,2.2-3.4,4.2-3.1c2,0.3,3.4,2.2,3.1,4.2c-0.3,2-2.2,3.4-4.2,3.1  C19.3,58,17.9,56.1,18.2,54.1"/>
</svg>