<?xml version="1.0" encoding="UTF-8" standalone="no"?>
<!-- Created with Inkscape (http://www.inkscape.org/) -->

<svg
   xmlns:dc="http://purl.org/dc/elements/1.1/"
   xmlns:cc="http://creativecommons.org/ns#"
   xmlns:rdf="http://www.w3.org/1999/02/22-rdf-syntax-ns#"
   xmlns:svg="http://www.w3.org/2000/svg"
   xmlns="http://www.w3.org/2000/svg"
   xmlns:sodipodi="http://sodipodi.sourceforge.net/DTD/sodipodi-0.dtd"
   xmlns:inkscape="http://www.inkscape.org/namespaces/inkscape"
   width="1000"
   height="1000"
   viewBox="0 0 264.58333 264.58334"
   version="1.1"
   id="svg1452"
   inkscape:version="0.92.3 (2405546, 2018-03-11)"
   sodipodi:docname="circuit2.svg">
  <defs
     id="defs1446" />
  <sodipodi:namedview
     id="base"
     pagecolor="#ffffff"
     bordercolor="#666666"
     borderopacity="1.0"
     inkscape:pageopacity="0.0"
     inkscape:pageshadow="2"
     inkscape:zoom="0.7"
     inkscape:cx="490.70387"
     inkscape:cy="484.34271"
     inkscape:document-units="mm"
     inkscape:current-layer="g48"
     showgrid="false"
     units="px"
     inkscape:window-width="1920"
     inkscape:window-height="1017"
     inkscape:window-x="-8"
     inkscape:window-y="-8"
     inkscape:window-maximized="1" />
  <metadata
     id="metadata1449">
    <rdf:RDF>
      <cc:Work
         rdf:about="">
        <dc:format>image/svg+xml</dc:format>
        <dc:type
           rdf:resource="http://purl.org/dc/dcmitype/StillImage" />
        <dc:title></dc:title>
      </cc:Work>
    </rdf:RDF>
  </metadata>
  <g
     inkscape:label="Layer 1"
     inkscape:groupmode="layer"
     id="layer1"
     transform="translate(0,-32.41665)">
    <g
       transform="matrix(1.044682,0,0,-1.044682,46.657558,266.76468)"
       id="g48"
       style="opacity:0.06418919">
      <path
         inkscape:connector-curvature="0"
         id="path50"
         style="fill:#000000;fill-opacity:1;fill-rule:nonzero;stroke:none"
         d="m 0,0 c -0.837,0 -1.523,0.682 -1.523,1.52 0,0.841 0.686,1.523 1.523,1.523 0.85,0 1.533,-0.682 1.533,-1.523 C 1.533,0.682 0.85,0 0,0 m 20.279,-4.27 v 6.234 c 0,0.628 -0.513,1.144 -1.145,1.144 h -6.231 c -0.632,0 -1.144,-0.516 -1.144,-1.144 V 1.516 H 2.161 c -0.069,1.349 -1.172,2.422 -2.536,2.422 -1.405,0 -2.543,-1.14 -2.543,-2.543 0,-1.404 1.138,-2.541 2.543,-2.541 1.315,0 2.397,1 2.532,2.282 h 9.602 V -4.27 c 0,-0.629 0.512,-1.143 1.144,-1.143 h 6.231 c 0.632,0 1.145,0.514 1.145,1.143 m 145.052,105.262 c 0,0.843 0.684,1.529 1.53,1.529 0.844,0 1.524,-0.686 1.524,-1.529 0,-0.844 -0.68,-1.523 -1.524,-1.523 -0.846,0 -1.53,0.679 -1.53,1.523 M 94.519,-4.777 v 6.102 c 0,0.447 -0.262,0.838 -0.641,1.026 v 9.138 l 10.132,10.13 h 13.589 l 24.376,24.379 v 25.199 l 20.688,20.698 v 4.635 l 2.297,2.295 c 0.424,-0.312 0.951,-0.501 1.517,-0.501 1.401,0 2.54,1.138 2.54,2.543 0,1.407 -1.139,2.541 -2.54,2.541 -1.402,0 -2.543,-1.134 -2.543,-2.541 0,-0.699 0.284,-1.329 0.742,-1.787 l -2.398,-2.393 V 92.046 L 141.589,71.356 V 46.159 L 117.437,21.999 H 103.85 L 93.497,11.646 V 2.462 c -0.04,0 -0.08,0.01 -0.122,0.01 h -6.098 c -0.63,0 -1.148,-0.514 -1.148,-1.147 v -6.102 c 0,-0.632 0.518,-1.146 1.148,-1.146 h 6.098 c 0.63,0 1.144,0.514 1.144,1.146 m 0.258,86.827 c 0.626,0 1.142,0.52 1.142,1.144 v 4.744 h 5.341 v 0.383 H 95.919 V 89.3 c 0,0.631 -0.516,1.146 -1.142,1.146 h -6.103 c -0.628,0 -1.143,-0.515 -1.143,-1.146 v -6.106 c 0,-0.624 0.515,-1.144 1.143,-1.144 z m 59.497,29.372 c 0,-0.844 -0.687,-1.528 -1.53,-1.528 -0.84,0 -1.519,0.684 -1.519,1.528 0,0.838 0.679,1.522 1.519,1.522 0.843,0 1.53,-0.684 1.53,-1.522 m -4.452,-0.127 c 0,-1.412 1.135,-2.543 2.544,-2.543 1.405,0 2.543,1.131 2.543,2.543 0,1.403 -1.138,2.543 -2.543,2.543 -1.409,0 -2.544,-1.14 -2.544,-2.543 M -32.149,15.699 c 0,0.842 0.687,1.522 1.527,1.522 0.843,0 1.522,-0.68 1.522,-1.522 0,-0.841 -0.679,-1.531 -1.522,-1.531 -0.84,0 -1.527,0.69 -1.527,1.531 m 159.215,80.34 c 0,0.842 0.684,1.522 1.523,1.522 0.843,0 1.526,-0.68 1.526,-1.522 0,-0.85 -0.683,-1.528 -1.526,-1.528 -0.839,0 -1.523,0.678 -1.523,1.528 M -28.461,15.571 c 0,0.604 -0.212,1.159 -0.562,1.594 l 0.02,-0.029 2.808,2.805 v 9.738 l 15.12,15.115 h 119.152 l 13.65,13.647 v 26.79 l 4.861,4.862 v 3.861 c 0.442,-0.364 1.01,-0.59 1.624,-0.59 1.404,0 2.542,1.14 2.542,2.541 0,1.404 -1.138,2.542 -2.542,2.542 -1.407,0 -2.54,-1.138 -2.54,-2.542 0,-0.581 0.197,-1.124 0.534,-1.553 V 90.256 L 121.344,85.39 V 58.601 L 107.915,45.172 H -11.235 L -26.573,29.833 v -9.73 l -2.686,-2.684 c -0.459,0.427 -1.068,0.695 -1.746,0.695 -1.404,0 -2.543,-1.137 -2.543,-2.543 0,-1.403 1.139,-2.541 2.543,-2.541 1.402,0 2.544,1.138 2.544,2.541 m -4.028,8.357 c 0,0.843 0.683,1.521 1.523,1.521 0.84,0 1.529,-0.678 1.529,-1.521 0,-0.849 -0.689,-1.531 -1.529,-1.531 -0.84,0 -1.523,0.682 -1.523,1.531 m 160.701,80.626 c 0,0.842 0.683,1.524 1.529,1.524 0.839,0 1.52,-0.682 1.52,-1.524 0,-0.844 -0.681,-1.524 -1.52,-1.524 -0.846,0 -1.529,0.68 -1.529,1.524 M -28.802,23.798 c 0,1.406 -1.136,2.541 -2.543,2.541 h -0.02 v 3.148 l 17.892,17.899 h 120.224 l 12.329,12.32 v 26.622 l 4.266,4.261 v 9.662 l 3.542,3.546 c 0.285,-1.098 1.277,-1.913 2.465,-1.913 1.404,0 2.543,1.143 2.543,2.545 0,1.401 -1.139,2.54 -2.543,2.54 -1.4,0 -2.545,-1.139 -2.545,-2.54 0,-0.103 0.014,-0.21 0.026,-0.304 l -0.078,0.076 -3.792,-3.792 v -9.661 l -4.266,-4.266 V 59.869 L 106.591,47.767 H -13.632 L -31.751,29.65 v -3.347 c -1.214,-0.192 -2.141,-1.236 -2.141,-2.505 0,-1.405 1.139,-2.54 2.547,-2.54 1.407,0 2.543,1.135 2.543,2.54 m -1.866,27.213 c 0,0.845 0.684,1.525 1.53,1.525 0.844,0 1.524,-0.68 1.524,-1.525 0,-0.839 -0.68,-1.529 -1.524,-1.529 -0.846,0 -1.53,0.69 -1.53,1.529 m 3.689,-0.123 c 0,0.627 -0.223,1.19 -0.597,1.631 l 4.489,4.49 h 2.811 v -2.352 c 0,-0.633 0.52,-1.146 1.148,-1.146 h 6.225 c 0.628,0 1.148,0.513 1.148,1.146 v 6.229 c 0,0.628 -0.52,1.142 -1.148,1.142 h -6.225 c -0.628,0 -1.148,-0.514 -1.148,-1.142 v -3.501 c -0.885,0.005 -2.891,0.005 -2.891,0 h -0.083 l -4.594,-4.59 c -0.444,0.393 -1.037,0.636 -1.676,0.636 -1.405,0 -2.543,-1.141 -2.543,-2.543 0,-1.406 1.138,-2.543 2.543,-2.543 1.402,0 2.541,1.137 2.541,2.543 m 2.32,-5.121 c 0,0.841 0.683,1.528 1.52,1.528 0.847,0 1.531,-0.687 1.531,-1.528 0,-0.84 -0.684,-1.522 -1.531,-1.522 -0.837,0 -1.52,0.682 -1.52,1.522 m 3.689,-0.125 c 0,0.493 -0.146,0.956 -0.392,1.344 l 2.814,2.807 h 98.21 l 31.627,31.631 v 9.244 H 110.91 V 81.585 L 79.504,50.181 h -98.212 l -2.883,-2.886 c -0.462,0.545 -1.152,0.889 -1.926,0.889 -1.398,0 -2.543,-1.138 -2.543,-2.542 0,-1.405 1.145,-2.543 2.543,-2.543 1.405,0 2.547,1.138 2.547,2.543 m 57.131,18.33 c 0,0.84 0.678,1.525 1.523,1.525 0.84,0 1.528,-0.685 1.528,-1.525 0,-0.843 -0.688,-1.531 -1.528,-1.531 -0.845,0 -1.523,0.688 -1.523,1.531 m 3.686,-0.128 c 0,1.405 -1.14,2.545 -2.545,2.545 -1.405,0 -2.541,-1.14 -2.541,-2.545 0,-1.407 1.136,-2.542 2.541,-2.542 1.405,0 2.545,1.135 2.545,2.542 M 3.629,13.726 c 0,0.839 0.681,1.526 1.53,1.526 0.84,0 1.524,-0.687 1.524,-1.526 0,-0.844 -0.684,-1.527 -1.524,-1.527 -0.849,0 -1.53,0.683 -1.53,1.527 m 3.678,-0.204 v -0.246 h 2.05 l 3.283,3.276 c 0.089,-0.023 0.173,-0.033 0.263,-0.033 h 6.231 c 0.632,0 1.145,0.514 1.145,1.144 v 6.229 c 0,0.629 -0.513,1.141 -1.145,1.141 h -6.231 c -0.632,0 -1.144,-0.512 -1.144,-1.141 v -6.229 c 0,-0.393 0.201,-0.738 0.502,-0.947 l -3.06,-3.06 H 7.307 c -0.025,1.377 -1.149,2.486 -2.536,2.486 -1.399,0 -2.543,-1.14 -2.543,-2.543 0,-1.404 1.144,-2.541 2.543,-2.541 1.38,0 2.498,1.097 2.536,2.464 M -20.97,3.043 c 0,0.85 0.676,1.528 1.526,1.528 0.843,0 1.52,-0.678 1.52,-1.528 0,-0.842 -0.677,-1.523 -1.52,-1.523 -0.85,0 -1.526,0.681 -1.526,1.523 m 3.684,-0.125 c 0,0.619 -0.219,1.185 -0.579,1.625 l 3.071,3.078 h 49.038 l 3.833,-3.832 v -6.088 c 0,-0.628 0.514,-1.144 1.145,-1.144 h 6.221 c 0.64,0 1.149,0.516 1.149,1.144 v 6.228 c 0,0.632 -0.509,1.148 -1.149,1.148 h -6.221 c -0.515,0 -0.946,-0.343 -1.087,-0.809 l -3.732,3.731 h -49.35 L -18.14,4.813 c -0.447,0.4 -1.041,0.646 -1.689,0.646 -1.401,0 -2.536,-1.138 -2.536,-2.541 0,-1.402 1.135,-2.542 2.536,-2.542 1.405,0 2.543,1.14 2.543,2.542 m -3.122,8.98 c 0,0.842 0.69,1.524 1.534,1.524 0.842,0 1.522,-0.682 1.522,-1.524 0,-0.84 -0.68,-1.524 -1.522,-1.524 -0.844,0 -1.534,0.684 -1.534,1.524 m 3.688,-0.126 c 0,1.402 -1.138,2.543 -2.543,2.543 -1.398,0 -2.544,-1.141 -2.544,-2.543 0,-1.404 1.146,-2.543 2.544,-2.543 1.405,0 2.543,1.139 2.543,2.543 m 2.55,7.665 c 0.84,0 1.523,-0.682 1.523,-1.527 0,-0.842 -0.683,-1.523 -1.523,-1.523 -0.84,0 -1.526,0.681 -1.526,1.523 0,0.845 0.686,1.527 1.526,1.527 m -0.386,-4.196 c 1.41,0 2.551,1.139 2.551,2.542 0,0.226 -0.038,0.438 -0.087,0.637 h 6.8 l 18.469,18.472 h 99.125 l 17.56,17.557 v 26.697 l 15.256,15.252 v 7.063 l 5.669,5.662 -0.274,0.271 -5.774,-5.779 V 96.563 L 129.48,81.304 V 54.609 L 112.149,37.27 H 13.021 L -5.447,18.803 h -6.777 c -0.388,0.9 -1.28,1.521 -2.332,1.521 -1.401,0 -2.532,-1.137 -2.532,-2.541 0,-1.403 1.131,-2.542 2.532,-2.542 M 94.269,53.193 c -0.843,0 -1.531,0.682 -1.531,1.526 0,0.846 0.688,1.526 1.531,1.526 0.844,0 1.523,-0.68 1.523,-1.526 0,-0.844 -0.679,-1.526 -1.523,-1.526 m -0.383,3.94 c -1.403,0 -2.54,-1.136 -2.54,-2.543 0,-1.402 1.137,-2.541 2.54,-2.541 1.401,0 2.543,1.139 2.543,2.541 0,1.407 -1.142,2.543 -2.543,2.543 m 11.95,-1.272 c 0,0.844 0.681,1.524 1.521,1.524 0.847,0 1.529,-0.68 1.529,-1.524 0,-0.84 -0.682,-1.521 -1.529,-1.521 -0.84,0 -1.521,0.681 -1.521,1.521 m 3.688,-0.125 c 0,1.403 -1.141,2.544 -2.541,2.544 -1.412,0 -2.544,-1.141 -2.544,-2.544 0,-1.403 1.132,-2.543 2.544,-2.543 1.4,0 2.541,1.14 2.541,2.543 m -9.026,24.539 c 0.842,0 1.525,-0.687 1.525,-1.53 0,-0.843 -0.683,-1.524 -1.525,-1.524 -0.848,0 -1.528,0.681 -1.528,1.524 0,0.843 0.68,1.53 1.528,1.53 M 99.642,76.12 77.025,53.515 -12.394,53.511 v -0.378 h 89.581 l 22.944,22.944 c 1.398,0.014 2.527,1.144 2.527,2.543 0,1.401 -1.141,2.543 -2.543,2.543 -1.402,0 -2.544,-1.142 -2.544,-2.543 0,-1.236 0.891,-2.274 2.071,-2.5 m 6.069,11.781 c 0,-0.841 -0.687,-1.528 -1.528,-1.528 -0.843,0 -1.525,0.687 -1.525,1.528 0,0.845 0.682,1.525 1.525,1.525 0.841,0 1.528,-0.68 1.528,-1.525 m -4.451,-0.125 c 0,-1.41 1.141,-2.548 2.545,-2.548 1.402,0 2.54,1.138 2.54,2.548 0,1.402 -1.138,2.538 -2.54,2.538 -1.404,0 -2.545,-1.136 -2.545,-2.538 m 8.387,5.588 c 0,0.843 0.68,1.529 1.524,1.529 0.849,0 1.53,-0.686 1.53,-1.529 0,-0.842 -0.681,-1.517 -1.53,-1.517 -0.844,0 -1.524,0.675 -1.524,1.517 m 3.691,-0.127 c 0,1.404 -1.14,2.543 -2.542,2.543 -1.407,0 -2.543,-1.139 -2.543,-2.543 0,-1.401 1.136,-2.539 2.543,-2.539 1.402,0 2.542,1.138 2.542,2.539 m 25.808,11.953 c 0,-0.841 -0.686,-1.523 -1.53,-1.523 -0.839,0 -1.522,0.682 -1.522,1.523 0,0.84 0.683,1.525 1.522,1.525 0.844,0 1.53,-0.685 1.53,-1.525 m -4.451,-0.128 c 0,-1.402 1.135,-2.541 2.543,-2.541 1.403,0 2.54,1.139 2.54,2.541 0,1.405 -1.137,2.544 -2.54,2.544 -1.408,0 -2.543,-1.139 -2.543,-2.544 m 17.16,-6.615 c 0,0.85 0.681,1.532 1.524,1.532 0.843,0 1.53,-0.682 1.53,-1.532 0,-0.84 -0.687,-1.519 -1.53,-1.519 -0.843,0 -1.524,0.679 -1.524,1.519 M 46.344,5.364 V 4.98 h 18.992 l 26.721,26.728 h 23.331 l 19.88,19.885 v 24.024 l 17.798,17.799 v 2.372 c 1.374,0.032 2.474,1.156 2.474,2.536 0,1.4 -1.138,2.543 -2.536,2.543 -1.408,0 -2.543,-1.143 -2.543,-2.543 0,-1.291 0.968,-2.365 2.221,-2.519 V 93.574 L 134.886,75.771 V 51.747 L 115.227,32.092 H 91.896 L 65.173,5.364 Z m 41.818,2.635 c 0,-0.843 -0.68,-1.525 -1.521,-1.525 -0.843,0 -1.531,0.682 -1.531,1.525 0,0.845 0.688,1.528 1.531,1.528 0.841,0 1.521,-0.683 1.521,-1.528 m 88.661,101.066 h -12.456 l -5.516,-5.512 V 94.721 L 137.714,73.579 V 49.585 L 115.117,26.989 H 96.857 L 85.664,15.797 v -5.458 c -1.117,-0.269 -1.95,-1.268 -1.95,-2.47 0,-1.4 1.141,-2.542 2.545,-2.542 1.4,0 2.544,1.142 2.544,2.542 0,1.406 -1.144,2.545 -2.544,2.545 -0.074,0 -0.146,0 -0.22,-0.009 l 0.005,5.231 10.975,10.97 h 18.252 l 22.825,22.823 v 23.998 l 21.133,21.136 v 8.835 l 5.297,5.291 h 12.453 l 5.579,5.578 v 9.104 h -0.378 v -8.952 z m -3.098,7.821 c 0.839,0 1.526,-0.684 1.526,-1.529 0,-0.838 -0.687,-1.519 -1.526,-1.519 -0.843,0 -1.527,0.681 -1.527,1.519 0,0.845 0.684,1.529 1.527,1.529 M -16.72,11.389 h 9.537 L 10.315,28.886 H 20.483 L 33.037,16.327 H 51.36 c 0.183,-0.117 0.403,-0.192 0.635,-0.192 h 6.235 c 0.233,0 0.45,0.075 0.632,0.192 h 8.089 l 18.118,18.125 h 28.47 L 132.2,53.113 v 26.208 l 15.242,15.242 v 6.641 l 4.494,4.496 h 4.388 l 9.473,9.47 h 5.003 c 0.038,-1.372 1.158,-2.481 2.539,-2.481 1.409,0 2.544,1.142 2.544,2.543 0,1.403 -1.135,2.545 -2.544,2.545 -1.297,0 -2.359,-0.977 -2.515,-2.228 h -5.187 l -9.472,-9.467 h -4.389 l -4.715,-4.723 V 94.721 L 131.815,79.479 V 53.273 L 113.376,34.831 H 84.906 L 66.788,16.711 h -7.576 c 0.1,0.174 0.16,0.364 0.16,0.569 v 6.228 c 0,0.632 -0.514,1.146 -1.142,1.146 h -6.235 c -0.626,0 -1.144,-0.514 -1.144,-1.146 V 17.28 c 0,-0.205 0.064,-0.395 0.156,-0.569 H 33.2 L 20.644,29.266 H 10.159 L -7.345,11.772 H -16.72 Z M 4.257,57.707 4.264,57.324 70.446,58.218 87.717,75.483 V 82.05 H 87.342 V 75.646 L 70.291,58.596 Z M -19.114,21.939 c 0,-0.839 -0.68,-1.53 -1.524,-1.53 -0.84,0 -1.526,0.691 -1.526,1.53 0,0.844 0.686,1.524 1.526,1.524 0.844,0 1.524,-0.68 1.524,-1.524 m -2.352,7.577 v -5.204 c -1.191,-0.206 -2.093,-1.249 -2.093,-2.5 0,-1.408 1.135,-2.539 2.537,-2.539 1.408,0 2.546,1.131 2.546,2.539 0,1.406 -1.138,2.544 -2.546,2.544 -0.021,0 -0.041,-0.003 -0.059,-0.003 v 5.002 l 12.823,12.828 h 0.995 c -0.561,-0.075 -0.995,-0.552 -0.995,-1.127 v -6.231 c 0,-0.631 0.514,-1.146 1.135,-1.146 h 6.231 c 0.631,0 1.145,0.515 1.145,1.146 v 6.231 c 0,0.575 -0.434,1.052 -0.996,1.127 H 109.415 L 124.4,57.17 v 26.653 l 12.831,12.83 v 5.862 H 136.85 V 96.814 L 124.021,83.978 V 57.329 L 109.256,42.566 H -8.414 Z m 161.626,85.966 c 0,0.851 0.687,1.531 1.53,1.531 0.843,0 1.523,-0.68 1.523,-1.531 0,-0.837 -0.68,-1.519 -1.523,-1.519 -0.843,0 -1.53,0.682 -1.53,1.519 M -14.045,25.456 c 0,0.842 0.677,1.528 1.52,1.528 0.846,0 1.526,-0.686 1.526,-1.528 0,-0.843 -0.68,-1.528 -1.526,-1.528 -0.843,0 -1.52,0.685 -1.52,1.528 M 126.704,82.854 V 55.922 L 110.737,39.955 H 11.044 L -4.75,24.162 h -5.898 c 0.184,0.351 0.288,0.744 0.288,1.167 0,1.403 -1.139,2.544 -2.543,2.544 -1.409,0 -2.543,-1.141 -2.543,-2.544 0,-1.401 1.134,-2.539 2.543,-2.539 0.832,0 1.568,0.398 2.025,1.017 V 23.78 h 6.287 l 15.797,15.792 h 99.688 l 16.185,16.187 V 82.69 l 15.235,15.233 v 15.027 h -0.208 c 1.006,0.329 1.742,1.287 1.742,2.407 0,1.403 -1.142,2.544 -2.543,2.544 -1.402,0 -2.543,-1.141 -2.543,-2.544 0,-1.403 1.141,-2.541 2.543,-2.541 0.215,0 0.424,0.03 0.621,0.081 v -14.82 z m 0.052,21.347 z m 2.409,17.643 v -14.681 h 0.382 v 14.517 l 3.348,3.345 h 17.941 v -4.516 c 0,-0.63 0.517,-1.146 1.151,-1.146 h 5.337 c 0.628,0 1.141,0.516 1.141,1.146 v 5.339 c 0,0.63 -0.513,1.141 -1.141,1.141 h -5.337 c -0.634,0 -1.151,-0.511 -1.151,-1.141 v -0.439 h -18.105 z m 57.83,71.321 10.662,-10.662 v -35.601 l -15.435,-15.435 0.266,-0.276 15.548,15.555 v 35.913 l -10.888,10.885 h -10.186 v -0.379 z m -57.702,-6.293 c 0,-0.632 0.514,-1.148 1.142,-1.148 h 5.339 c 0.628,0 1.142,0.516 1.142,1.148 v 5.343 c 0,0.628 -0.514,1.138 -1.142,1.138 h -5.339 c -0.628,0 -1.142,-0.51 -1.142,-1.138 z m 48.626,-56.831 v -5.336 c 0,-0.63 0.514,-1.143 1.142,-1.143 h 5.339 c 0.628,0 1.145,0.513 1.145,1.143 v 5.336 c 0,0.632 -0.517,1.147 -1.145,1.147 h -5.339 c -0.628,0 -1.142,-0.515 -1.142,-1.147 m -4.58,10.296 h 5.34 c 0.632,0 1.145,0.522 1.145,1.146 v 5.343 c 0,0.628 -0.513,1.142 -1.145,1.142 h -5.34 c -0.624,0 -1.141,-0.514 -1.141,-1.142 v -5.075 l -1.429,-1.426 V 125.161 L 160.63,115.03 h -5.104 l -1.602,-1.606 0.274,-0.277 1.489,1.498 h 5.096 l 10.367,10.364 v 15.158 l 1.076,1.075 c 0.111,-0.516 0.565,-0.905 1.113,-0.905 m 14.114,25.748 c 0,0.629 -0.516,1.142 -1.144,1.142 h -5.34 c -0.628,0 -1.145,-0.513 -1.145,-1.142 v -5.339 c 0,-0.632 0.517,-1.145 1.145,-1.145 h 5.34 c 0.628,0 1.144,0.513 1.144,1.145 z m -71.829,-98.02 c 0,-0.84 -0.684,-1.521 -1.525,-1.521 -0.843,0 -1.52,0.681 -1.52,1.521 0,0.84 0.677,1.533 1.52,1.533 0.841,0 1.525,-0.693 1.525,-1.533 M 87.243,95.529 v 30.984 c 0,0.53 0.43,0.959 0.957,0.959 h 1.713 c 0.525,0 0.955,-0.429 0.955,-0.959 V 95.905 c 0,-0.73 0.599,-1.332 1.331,-1.332 h 2.481 c 0.732,0 1.338,0.602 1.338,1.332 v 30.519 c 0,0.518 0.428,0.947 0.954,0.947 h 2.382 c 0.52,0 0.952,-0.429 0.952,-0.947 V 99.056 c 0,-0.739 0.598,-1.332 1.336,-1.332 h 2.198 c 0.731,0 1.325,0.593 1.325,1.332 v 27.267 c 0.007,0.526 0.434,0.951 0.961,0.958 h 2.478 c 0.52,-0.007 0.95,-0.432 0.95,-0.958 v -22.692 c 0.004,-0.733 0.598,-1.331 1.333,-1.331 h 1.904 c 0.739,0 1.341,0.598 1.341,1.331 v 22.692 c 0,0.526 0.429,0.951 0.949,0.958 h 2.579 c 0.525,-0.007 0.954,-0.432 0.954,-0.958 V 92.762 c 0.002,-0.56 -0.349,-1.422 -0.754,-1.811 l -1.912,-1.917 c -0.484,-0.496 -0.858,-1.391 -0.867,-2.089 V 70.082 c -0.393,0.251 -0.862,0.4 -1.367,0.4 -1.401,0 -2.534,-1.132 -2.534,-2.543 0,-1.398 1.133,-2.542 2.534,-2.542 1.414,0 2.55,1.144 2.55,2.542 0,0.779 -0.354,1.473 -0.906,1.941 h 0.11 v 17.065 c -0.004,0.563 0.348,1.432 0.748,1.821 l 1.913,1.906 c 0.487,0.499 0.858,1.392 0.862,2.09 v 33.561 c 0,0.735 -0.598,1.336 -1.331,1.336 h -2.579 c -0.732,0 -1.332,-0.601 -1.332,-1.336 v -22.692 c 0,-0.519 -0.429,-0.947 -0.958,-0.947 h -1.904 c -0.52,0 -0.953,0.428 -0.953,0.947 v 22.692 c 0,0.735 -0.599,1.336 -1.33,1.336 h -2.478 c -0.739,0 -1.336,-0.601 -1.336,-1.336 V 99.056 c 0,-0.528 -0.434,-0.951 -0.95,-0.957 h -2.198 c -0.524,0.006 -0.95,0.429 -0.95,0.957 v 27.368 c 0,0.73 -0.606,1.331 -1.338,1.331 h -2.382 c -0.742,0 -1.341,-0.601 -1.341,-1.331 V 95.905 c 0,-0.52 -0.429,-0.948 -0.951,-0.948 h -2.481 c -0.516,0 -0.949,0.428 -0.954,0.948 v 30.608 c 0,0.738 -0.595,1.337 -1.332,1.337 H 88.2 c -0.738,0 -1.336,-0.599 -1.336,-1.337 V 95.529 c 0,-0.527 -0.433,-0.956 -0.954,-0.956 h -1.524 c -0.528,0 -0.958,0.429 -0.958,0.956 v 34.226 c -0.003,0.563 0.359,1.433 0.757,1.821 l 0.959,0.958 c 0.386,0.399 1.255,0.76 1.813,0.754 h 77.039 c 0.735,0 1.335,0.597 1.335,1.334 v 2.287 c 0,0.737 -0.6,1.33 -1.335,1.33 H 92.105 c -0.522,0.007 -0.952,0.44 -0.952,0.96 v 1.906 c 0,0.523 0.43,0.951 0.952,0.951 h 72.463 c 0.736,0 1.336,0.6 1.336,1.336 v 2.476 c 0,0.739 -0.6,1.336 -1.336,1.336 h -33.557 c -0.528,0.004 -0.954,0.438 -0.958,0.957 v 2.478 c 0.004,0.524 0.43,0.951 0.958,0.951 h 37.943 c 0.732,0 1.336,0.599 1.336,1.339 v 2.672 c 0,0.728 -0.604,1.328 -1.336,1.328 h -10.867 c -0.524,0 -0.954,0.434 -0.954,0.955 v 5.53 c 0,0.739 -0.604,1.336 -1.332,1.336 h -36.234 c -0.741,0 -1.334,-0.597 -1.334,-1.336 v -14.107 c 0,-0.521 -0.43,-0.954 -0.956,-0.954 h -2.095 c -0.53,0 -0.958,0.433 -0.958,0.954 v 14.295 c 0,0.742 -0.595,1.335 -1.332,1.342 h -1.147 c -0.734,-0.007 -1.329,-0.6 -1.329,-1.342 v -14.68 c -0.005,-0.521 -0.434,-0.954 -0.956,-0.954 h -2.099 c -0.524,0 -0.952,0.433 -0.952,0.954 v 14.874 c 0,0.731 -0.602,1.339 -1.336,1.339 h -2.479 c -0.738,0 -1.334,-0.608 -1.334,-1.339 v -14.489 c 0,-0.521 -0.43,-0.954 -0.954,-0.954 h -7.628 c -0.524,0 -0.952,0.433 -0.952,0.954 v 43.668 c 0,0.52 0.428,0.95 0.952,0.95 h 3.435 c 0.52,0 0.949,-0.43 0.949,-0.95 v -21.363 c 0,-0.728 0.602,-1.332 1.335,-1.332 h 2.863 c 0.732,0 1.334,0.604 1.334,1.332 v 20.027 c 0,0.52 0.43,0.951 0.951,0.951 h 3.242 c 0.527,0 0.957,-0.431 0.957,-0.951 v -19.451 c 0,-0.735 0.599,-1.335 1.333,-1.335 h 2.861 c 0.735,0 1.337,0.6 1.337,1.335 v 19.256 c 0,0.528 0.428,0.958 0.949,0.958 h 2.864 c 0.522,0 0.951,-0.43 0.956,-0.958 v -19.068 c 0,-0.732 0.595,-1.333 1.331,-1.333 h 5.151 c 0.733,0 1.333,0.601 1.333,1.333 v 6.294 c 0,0.527 0.429,0.95 0.949,0.954 h 2.485 c 0.524,-0.004 0.951,-0.427 0.954,-0.954 v -6.1 c 0,-0.739 0.597,-1.336 1.336,-1.336 h 4.191 c 0.736,0 1.332,0.597 1.332,1.336 v 6.672 c 0.007,0.521 0.438,0.954 0.958,0.954 h 2.665 c 0.527,0 0.961,-0.433 0.961,-0.954 v -7.245 c 0,-0.738 0.593,-1.339 1.329,-1.339 h 4.763 c 0.743,0 1.336,0.601 1.336,1.339 v 14.302 c 0.011,0.524 0.438,0.947 0.958,0.954 h 3.053 c 0.517,-0.007 0.951,-0.43 0.951,-0.954 v -13.351 c 0,-0.732 0.6,-1.336 1.332,-1.336 h 4.583 c 0.735,0 1.336,0.604 1.336,1.336 v 26.317 c 0,0.524 0.427,0.951 0.947,0.951 h 3.053 c 0.521,0 0.951,-0.427 0.955,-0.951 v -26.507 c 0,-0.737 0.597,-1.333 1.339,-1.333 h 3.425 c 0.742,0 1.339,0.596 1.339,1.333 v 12.591 c 0.004,0.52 0.426,0.95 0.95,0.95 h 2.859 c 0.528,0 0.958,-0.43 0.958,-0.95 v -9.92 c 0,-0.736 0.6,-1.336 1.335,-1.336 h 1.905 c 0.736,0 1.336,0.6 1.336,1.336 v 9.534 c 0,0.528 0.43,0.951 0.951,0.954 l 3.053,-0.003 c 0.524,0 0.954,-0.423 0.954,-0.951 V 167.99 h 0.378 v 16.973 c 0,0.736 -0.592,1.336 -1.332,1.336 h -3.053 c -0.736,0 -1.336,-0.6 -1.336,-1.336 v -9.534 c 0,-0.521 -0.427,-0.95 -0.951,-0.957 h -1.905 c -0.523,0.007 -0.957,0.436 -0.957,0.957 v 9.92 c 0,0.728 -0.596,1.332 -1.336,1.332 h -2.859 c -0.729,0 -1.328,-0.604 -1.328,-1.332 v -12.591 c 0,-0.525 -0.431,-0.954 -0.961,-0.954 h -3.425 c -0.521,0 -0.961,0.429 -0.961,0.954 v 26.507 c 0,0.732 -0.601,1.336 -1.333,1.336 h -3.053 c -0.732,0 -1.336,-0.604 -1.336,-1.336 v -26.317 c 0,-0.523 -0.426,-0.951 -0.947,-0.951 h -4.583 c -0.52,0 -0.947,0.428 -0.947,0.951 v 13.351 c 0,0.732 -0.604,1.329 -1.336,1.329 h -3.053 c -0.728,0 -1.333,-0.597 -1.333,-1.329 v -14.302 c 0,-0.523 -0.43,-0.954 -0.961,-0.954 h -4.763 c -0.521,0 -0.951,0.431 -0.951,0.954 v 7.245 c 0,0.739 -0.596,1.332 -1.339,1.332 h -2.665 c -0.739,0 -1.335,-0.593 -1.335,-1.332 v -6.672 c 0,-0.527 -0.431,-0.958 -0.955,-0.958 h -4.191 c -0.531,0 -0.957,0.431 -0.957,0.958 v 6.1 c 0,0.738 -0.605,1.335 -1.333,1.335 h -2.485 c -0.729,0 -1.33,-0.597 -1.33,-1.335 v -6.294 c 0,-0.521 -0.429,-0.951 -0.952,-0.951 h -5.151 c -0.524,0 -0.951,0.43 -0.951,0.951 v 19.068 c 0,0.74 -0.602,1.34 -1.336,1.34 h -2.864 c -0.732,0 -1.332,-0.6 -1.332,-1.34 v -19.256 c 0,-0.52 -0.432,-0.954 -0.954,-0.958 h -2.861 c -0.524,0.004 -0.953,0.438 -0.953,0.958 v 19.451 c 0,0.735 -0.602,1.336 -1.337,1.336 h -3.242 c -0.729,0 -1.331,-0.601 -1.331,-1.336 v -20.027 c 0,-0.52 -0.432,-0.947 -0.954,-0.954 h -2.863 c -0.52,0.007 -0.95,0.434 -0.95,0.954 v 21.363 c 0,0.732 -0.602,1.336 -1.334,1.336 h -3.435 c -0.734,0 -1.332,-0.604 -1.332,-1.336 v -43.668 c 0,-0.743 0.598,-1.339 1.332,-1.339 h 7.628 c 0.739,0 1.336,0.596 1.336,1.339 v 14.489 c 0.004,0.523 0.424,0.954 0.952,0.954 h 2.479 c 0.522,0 0.95,-0.431 0.95,-0.954 v -14.874 c 0,-0.733 0.603,-1.336 1.338,-1.336 h 2.099 c 0.734,0 1.336,0.603 1.336,1.336 v 14.68 c 0,0.527 0.431,0.957 0.949,0.957 h 1.147 c 0.524,0 0.949,-0.43 0.954,-0.957 v -14.295 c 0,-0.743 0.6,-1.339 1.336,-1.339 h 2.095 c 0.74,0 1.337,0.596 1.337,1.339 v 14.107 c 0,0.527 0.429,0.95 0.953,0.95 h 36.234 c 0.52,0 0.947,-0.423 0.954,-0.95 v -5.53 c 0,-0.733 0.597,-1.336 1.332,-1.336 h 10.867 c 0.527,0 0.954,-0.431 0.954,-0.947 v -2.672 c 0,-0.528 -0.427,-0.954 -0.954,-0.954 h -37.943 c -0.736,0 -1.336,-0.593 -1.336,-1.336 v -2.478 c 0,-0.735 0.6,-1.335 1.336,-1.335 h 33.557 c 0.524,0 0.951,-0.43 0.951,-0.958 v -2.476 c 0,-0.524 -0.427,-0.953 -0.951,-0.953 H 92.105 c -0.733,0 -1.329,-0.601 -1.335,-1.334 v -1.906 c 0.006,-0.734 0.602,-1.334 1.335,-1.334 h 71.891 c 0.53,0 0.954,-0.432 0.957,-0.956 v -2.287 c -0.003,-0.527 -0.427,-0.954 -0.957,-0.954 H 86.957 c -0.698,-0.009 -1.588,-0.374 -2.086,-0.865 l -0.959,-0.956 c -0.487,-0.499 -0.857,-1.388 -0.862,-2.092 V 95.529 c 0,-0.739 0.596,-1.334 1.336,-1.334 h 1.524 c 0.737,0 1.333,0.595 1.333,1.334" />
    </g>
  </g>
</svg>
