<?xml version="1.0" encoding="UTF-8" standalone="no"?>
<!-- Created with Inkscape (http://www.inkscape.org/) -->

<svg
   xmlns:dc="http://purl.org/dc/elements/1.1/"
   xmlns:cc="http://creativecommons.org/ns#"
   xmlns:rdf="http://www.w3.org/1999/02/22-rdf-syntax-ns#"
   xmlns:svg="http://www.w3.org/2000/svg"
   xmlns="http://www.w3.org/2000/svg"
   xmlns:sodipodi="http://sodipodi.sourceforge.net/DTD/sodipodi-0.dtd"
   xmlns:inkscape="http://www.inkscape.org/namespaces/inkscape"
   width="1000"
   height="1000"
   viewBox="0 0 264.58333 264.58333"
   version="1.1"
   id="svg892"
   inkscape:version="0.92.3 (2405546, 2018-03-11)"
   sodipodi:docname="circuit.svg">
  <defs
     id="defs886" />
  <sodipodi:namedview
     id="base"
     pagecolor="#ffffff"
     bordercolor="#666666"
     borderopacity="1.0"
     inkscape:pageopacity="0.0"
     inkscape:pageshadow="2"
     inkscape:zoom="0.7"
     inkscape:cx="540.08842"
     inkscape:cy="419.23591"
     inkscape:document-units="mm"
     inkscape:current-layer="layer1"
     showgrid="false"
     units="px"
     inkscape:window-width="1920"
     inkscape:window-height="1017"
     inkscape:window-x="-8"
     inkscape:window-y="-8"
     inkscape:window-maximized="1" />
  <metadata
     id="metadata889">
    <rdf:RDF>
      <cc:Work
         rdf:about="">
        <dc:format>image/svg+xml</dc:format>
        <dc:type
           rdf:resource="http://purl.org/dc/dcmitype/StillImage" />
        <dc:title></dc:title>
      </cc:Work>
    </rdf:RDF>
  </metadata>
  <g
     inkscape:label="Layer 1"
     inkscape:groupmode="layer"
     id="layer1"
     style="display:inline;opacity:0.07094595"
     transform="translate(0,-32.41665)">
    <path
       inkscape:connector-curvature="0"
       id="path46"
       style="fill:#000000;fill-opacity:1;fill-rule:nonzero;stroke:none;stroke-width:0.99238449"
       d="M 138.10358,40.72102 V 39.906133 H 77.58435 v 1.628739 h 60.51923 z m -29.35256,27.868507 c 0,-1.792507 1.37854,-3.242194 3.08619,-3.242194 1.71054,0 3.09003,1.449687 3.09003,3.242194 0,1.796601 -1.37949,3.247296 -3.09003,3.247296 -1.70765,0 -3.08619,-1.450695 -3.08619,-3.247296 m -3.60891,15.421546 c -1.27203,0 -2.31561,1.095675 -2.31561,2.4365 v 12.985069 c 0,1.342868 1.04358,2.437518 2.31561,2.437518 h 12.35825 c 1.27686,0 2.31754,-1.09465 2.31754,-2.437518 V 86.447573 c 0,-1.340825 -1.04068,-2.4365 -2.31754,-2.4365 H 112.3561 V 73.121676 c 2.47627,-0.392679 4.37464,-2.627724 4.37464,-5.350067 0,-2.978735 -2.30301,-5.40402 -5.14816,-5.40402 -2.8422,0 -5.14813,2.425285 -5.14813,5.40402 0,2.71421 1.89645,4.957388 4.37273,5.350067 v 10.889397 z m 19.05721,55.199837 c -1.71056,0 -3.08909,-1.45172 -3.08909,-3.24322 0,-1.79355 1.37853,-3.25237 3.08909,-3.25237 1.7038,0 3.08907,1.45882 3.08907,3.25237 0,1.7915 -1.38527,3.24322 -3.08907,3.24322 m -4.213,47.96568 7.63702,-8.01853 c 1.07843,-1.18316 1.8335,-3.09671 1.86256,-4.73463 v -39.27162 h -0.39787 c 0,-2.98379 -2.30205,-5.40706 -5.14621,-5.40706 -2.83933,0 -5.14913,2.42327 -5.14913,5.40706 0,2.99396 2.3098,5.41214 5.14913,5.41214 1.61567,0 3.04939,-0.77621 3.99616,-2.00105 v 35.86053 c 0.0291,1.03971 -0.68927,2.86479 -1.41047,3.57792 l -7.63509,8.02361 c -0.68345,0.76604 -2.41627,1.51582 -3.40563,1.48938 H 25.839649 v 1.61755 h 89.647141 c 1.55275,-0.0231 3.38238,-0.81896 4.49953,-1.9553 m 20.17633,-69.61123 c 1.70958,0 3.09003,1.45681 3.09003,3.24324 0,1.7976 -1.38045,3.25338 -3.09003,3.25338 -1.70573,0 -3.0881,-1.45578 -3.0881,-3.25338 0,-1.78643 1.38237,-3.24324 3.0881,-3.24324 m -17.51128,75.09052 11.39796,-11.98507 c 1.08036,-1.17092 1.8374,-3.08959 1.86448,-4.72341 l 0.35238,-52.11737 c 0.9342,0.97866 2.21979,1.585 3.63895,1.585 2.84707,0 5.15297,-2.42327 5.15297,-5.41013 0,-2.99295 -2.3059,-5.41824 -5.15297,-5.41824 -2.57699,0 -4.70477,1.99091 -5.0862,4.5932 h -0.0659 l -0.38045,56.76144 c 0.0192,1.04884 -0.69506,2.86577 -1.41238,3.58705 l -11.40184,11.98101 c -0.68344,0.75993 -2.42013,1.51477 -3.40853,1.47715 H 14.633376 v 1.62667 H 118.14992 c 1.55275,-0.0259 3.38142,-0.82198 4.50145,-1.9573 m 18.28282,-85.64317 c -1.70476,0 -3.08619,-1.44969 -3.08619,-3.25036 0,-1.78844 1.38143,-3.24421 3.08619,-3.24421 1.70861,0 3.09488,1.45577 3.09488,3.24421 0,1.80067 -1.38627,3.25036 -3.09488,3.25036 m -20.08534,93.08077 c 1.56148,-0.0259 3.3892,-0.82503 4.50535,-1.96342 l 28.7795,-30.24088 c 1.08227,-1.17091 1.83832,-3.09774 1.86544,-4.72951 v -33.48716 c -0.0275,-1.63281 -0.78317,-3.54943 -1.86544,-4.72751 l -1.84611,-1.93086 c -0.71443,-0.72433 -1.43467,-2.53922 -1.40852,-3.59216 v -3.74577 c -0.0275,-1.64197 -0.78317,-3.56571 -1.85869,-4.73665 l -4.3524,-4.56574 c 0.72993,-0.93391 1.15974,-2.12007 1.15974,-3.41616 0,-2.992973 -2.30302,-5.421301 -5.1491,-5.421301 -2.84222,0 -5.14717,2.428328 -5.14717,5.421301 0,2.98483 2.30495,5.40606 5.14717,5.40606 1.05229,0 2.03196,-0.32963 2.84608,-0.9034 l 4.39985,4.62271 c 0.7212,0.72231 1.43468,2.5423 1.40948,3.59318 v 3.74577 c 0.0247,1.64399 0.78509,3.55961 1.86157,4.73563 l 1.84514,1.93392 c 0.7212,0.72027 1.43854,2.54026 1.41335,3.58098 v 33.48716 c 0.0247,1.0397 -0.69215,2.86477 -1.41335,3.57691 l -28.77753,30.25105 c -0.68441,0.75383 -2.41726,1.50971 -3.41436,1.48021 H 1.8927654 v 1.62564 z m 5.92453,2.37546 c -0.68537,0.75585 -2.42014,1.50869 -3.4095,1.47919 H 33.564744 v 1.62568 h 89.799136 c 1.55566,-0.0231 3.38433,-0.82809 4.49759,-1.96037 l 32.06992,-33.69366 c 1.0784,-1.17095 1.83253,-3.09573 1.8577,-4.7275 v -43.0276 h -1.02421 -0.51789 v 43.0276 c 0.022,1.03358 -0.69023,2.86477 -1.41143,3.5769 z m -49.180306,21.9843 c -1.706696,0 -3.090056,-1.46187 -3.090056,-3.25337 0,-1.79049 1.38336,-3.24221 3.090056,-3.24221 1.706669,0 3.090056,1.45172 3.090056,3.24221 0,1.7915 -1.383387,3.25337 -3.090056,3.25337 m 11.106525,-13.70738 h 37.559761 c 1.55953,-0.0259 3.38627,-0.81486 4.50148,-1.95325 l 39.16384,-41.15367 c 1.0784,-1.17808 1.83542,-3.09977 1.86061,-4.73362 V 134.341 h -1.54891 v 28.56432 c 0.0319,1.0387 -0.68831,2.86073 -1.40852,3.58403 l -39.16192,41.1537 c -0.68054,0.75282 -2.4124,1.50868 -3.40658,1.48529 H 88.699599 c -1.55953,0.0231 -3.386258,0.82098 -4.50242,1.95832 l -4.356268,4.57287 c -0.7425,-0.43134 -1.591499,-0.68159 -2.503396,-0.68159 -2.841274,0 -5.150082,2.42427 -5.150082,5.40805 0,2.994 2.308811,5.41826 5.150082,5.41826 2.844157,0 5.148135,-2.42426 5.148135,-5.41826 0,-1.4456 -0.543086,-2.74471 -1.413379,-3.71625 l 4.218789,-4.42943 c 0.680566,-0.7691 2.415307,-1.51989 3.408535,-1.49445 m 4.602169,17.76548 c -1.708618,0 -3.089068,-1.45579 -3.089068,-3.24831 0,-1.79658 1.38045,-3.2483 3.089068,-3.2483 1.705709,0 3.091015,1.45172 3.091015,3.2483 0,1.79252 -1.385306,3.24831 -3.091015,3.24831 M 155.86939,104.85292 c -1.70958,0 -3.08616,-1.45882 -3.08616,-3.24626 0,-1.801674 1.37658,-3.252366 3.08616,-3.252366 1.7067,0 3.09006,1.450692 3.09006,3.252366 0,1.78744 -1.38336,3.24626 -3.09006,3.24626 m -27.42708,114.99389 52.05066,-54.69523 c 1.08035,-1.174 1.83449,-3.09468 1.86352,-4.73359 v -36.42826 c -0.0291,-1.63176 -0.78317,-3.55247 -1.86352,-4.72644 l -21.5848,-22.690348 -0.0247,0.03457 c -0.89158,-0.763981 -2.02713,-1.223831 -3.26916,-1.223831 -2.84511,0 -5.152,2.413088 -5.152,5.409099 0,2.98176 2.30689,5.41116 5.152,5.41116 2.83353,0 5.12978,-2.40496 5.14721,-5.38266 l 18.63519,19.58442 c 0.72409,0.72333 1.44433,2.53822 1.41721,3.58403 v 36.42825 c 0.0275,1.04175 -0.69312,2.86883 -1.41721,3.57997 l -52.04582,54.70742 c -0.6815,0.75078 -2.41726,1.51073 -3.40855,1.47919 H 96.520136 v 0.27481 c -0.91483,-0.87387 -2.138454,-1.42219 -3.473407,-1.42219 -2.846104,0 -5.152991,2.42527 -5.152991,5.41621 0,2.98075 2.306887,5.40808 5.152991,5.40808 2.844156,0 5.148135,-2.42733 5.148135,-5.40808 0,-0.9644 -0.242853,-1.86679 -0.658283,-2.64096 h 26.405789 c 1.55566,-0.0294 3.38046,-0.83014 4.50049,-1.96548 m 16.87139,33.82391 c 0,1.79351 -1.38532,3.24626 -3.09103,3.24626 -1.70669,0 -3.09005,-1.45276 -3.09005,-3.24627 0,-1.78847 1.38336,-3.24222 3.09005,-3.24222 1.70571,0 3.09103,1.45375 3.09103,3.24222 M 173.8976,92.94229 c 0,-1.788451 1.38045,-3.246262 3.08711,-3.246262 1.70865,0 3.08811,1.457811 3.08811,3.246262 0,1.793543 -1.37946,3.243224 -3.08811,3.243224 -1.70666,0 -3.08711,-1.449681 -3.08711,-3.243224 m 5.77057,8.60534 c -0.74442,-0.7396 -1.44142,-2.433441 -1.41238,-3.250364 v -0.995939 c 2.09874,-0.682614 3.6215,-2.739651 3.6215,-5.169008 0,-2.994996 -2.30881,-5.411144 -5.15008,-5.411144 -2.84126,0 -5.14329,2.416148 -5.14329,5.411144 0,2.983813 2.28947,5.400966 5.12586,5.403999 v 0.760948 c 0.0299,1.487331 0.81223,3.250364 1.86643,4.399954 l 11.44828,12.02878 c 0.71928,0.72027 1.44045,2.54025 1.40756,3.58403 V 164.884 c 0.0329,1.04478 -0.68828,2.86272 -1.40756,3.58199 l -47.22391,49.62898 c -1.08131,1.17702 -1.84123,3.08958 -1.86639,4.73358 v 24.72802 c -2.35047,0.50664 -4.12102,2.68269 -4.12102,5.30023 0,2.99604 2.31172,5.41726 5.15297,5.41726 2.84514,0 5.15008,-2.42122 5.15008,-5.41726 0,-2.80677 -2.03487,-5.11405 -4.63603,-5.37956 V 222.8286 c -0.0275,-1.04579 0.69022,-2.87189 1.41722,-3.58606 l 47.22003,-49.62692 c 1.07936,-1.17908 1.83446,-3.09775 1.8577,-4.73156 v -46.57398 c -0.022,-1.63687 -0.77834,-3.55553 -1.8577,-4.73055 z m 24.09114,-42.422268 c 1.70958,0 3.09489,1.449688 3.09489,3.242195 0,1.796601 -1.38531,3.252372 -3.09489,3.252372 -1.70187,0 -3.08714,-1.455771 -3.08714,-3.252372 0,-1.792507 1.38527,-3.242195 3.08714,-3.242195 m -3.40562,49.919908 c 0.72312,0.71415 1.43754,2.54432 1.41238,3.5769 v 60.68624 c 0.0247,1.08446 -0.59632,2.76711 -1.12393,3.27985 -0.95352,1.04885 -1.5508,2.83729 -1.57986,4.4294 v 79.96141 h 1.54406 v -79.96141 c -0.0275,-1.08445 0.59439,-2.76914 1.12488,-3.27881 0.95742,-1.05497 1.55083,-2.84038 1.5789,-4.43044 v -60.68624 c -0.028,-1.63179 -0.78508,-3.54946 -1.86738,-4.72142 l -5.99033,-6.30227 c -0.71734,-0.71926 -1.43758,-2.545332 -1.41048,-3.587083 V 75.286533 c -0.0275,-1.04579 0.69314,-2.867797 1.41048,-3.582996 l 5.30784,-5.581026 c 0.79673,0.534099 1.73573,0.843381 2.74251,0.843381 2.84611,0 5.15204,-2.42122 5.15204,-5.41622 0,-2.982801 -2.30593,-5.407079 -5.15204,-5.407079 -2.84319,0 -5.14813,2.424278 -5.14813,5.407079 0,1.339787 0.4637,2.569734 1.23718,3.50773 l -5.23139,5.494542 c -1.07937,1.177028 -1.83641,3.098756 -1.86349,4.734589 v 22.724916 c 0.0275,1.639934 0.78412,3.557581 1.86349,4.739691 z m 0.31848,-24.766701 c 0,-1.78743 1.38527,-3.242193 3.08714,-3.242193 1.70958,0 3.09489,1.454763 3.09489,3.242193 0,1.798645 -1.38531,3.248313 -3.09489,3.248313 -1.70187,0 -3.08714,-1.449668 -3.08714,-3.248313 m 6.95356,20.578381 -2.03388,-2.1435 c -0.71928,-0.7111 -1.43758,-2.54127 -1.41338,-3.581989 V 88.828048 c 2.52472,-0.342851 4.47633,-2.611454 4.47633,-5.355196 0,-2.989896 -2.30593,-5.414173 -5.15204,-5.414173 -2.84319,0 -5.14813,2.424277 -5.14813,5.414173 0,2.681684 1.85093,4.901475 4.28075,5.326717 v 10.331892 c 0.0275,1.638889 0.78413,3.560619 1.86739,4.729519 l 2.03004,2.14047 c 0.7212,0.71515 1.4395,2.53617 1.41335,3.58197 v 1.6257 c 0.0247,1.6338 0.78607,3.55143 1.86158,4.73461 l 11.78711,12.38282 c 0.72216,0.71518 1.4395,2.53922 1.4153,3.57486 v 27.81253 c 0.0247,1.03972 -0.69314,2.8597 -1.4153,3.58099 l -15.25858,16.03399 c -1.07936,1.17807 -1.83833,3.10181 -1.86739,4.73156 v 79.62671 h 1.54697 v -79.62671 c -0.028,-1.04071 0.6883,-2.8648 1.41241,-3.58302 l 15.26047,-16.03704 c 1.08134,-1.17805 1.8374,-3.09672 1.86547,-4.72648 v -27.81253 c -0.028,-1.63281 -0.78413,-3.55147 -1.86547,-4.72241 l -11.78709,-12.39096 c -0.71734,-0.71924 -1.43755,-2.53822 -1.40948,-3.57892 v -1.6257 c -0.028,-1.63687 -0.78509,-3.55759 -1.86643,-4.72647 m 17.25082,-59.001591 c 1.7067,0 3.0891,1.462952 3.0891,3.251392 0,1.792536 -1.3824,3.243233 -3.0891,3.243233 -1.71057,0 -3.09003,-1.450697 -3.09003,-3.243233 0,-1.78844 1.37946,-3.251392 3.09003,-3.251392 m 1.93323,79.832251 c 0.72216,0.72128 1.43854,2.54026 1.41529,3.58198 l -0.005,113.31022 h 1.548 V 129.26964 c -0.0299,-1.63992 -0.78703,-3.55552 -1.86544,-4.73461 l -11.59154,-12.17427 c -0.72412,-0.72128 -1.4395,-2.54736 -1.41242,-3.59113 V 61.290249 c -0.0275,-1.045817 0.6883,-2.874948 1.41242,-3.586051 l 5.00292,-5.259545 c 0.89354,0.785359 2.04748,1.261465 3.30596,1.261465 2.84221,0 5.14813,-2.418163 5.14813,-5.414172 0,-2.98485 -2.30592,-5.411173 -5.14813,-5.411173 -2.8432,0 -5.15203,2.426323 -5.15203,5.411173 0,1.083422 0.30687,2.083477 0.82092,2.929883 l -5.0736,5.332794 c -1.08036,1.170916 -1.8335,3.091633 -1.86253,4.735626 v 47.479381 c 0.0291,1.64093 0.78217,3.56263 1.86253,4.7285 z m 2.18683,-17.73192 c 0.0247,1.64094 0.78413,3.55961 1.86256,4.73462 l 6.57216,6.90456 c 0.71829,0.7172 1.43851,2.53924 1.41434,3.57895 l -0.002,107.50334 h 1.54311 V 123.17387 c -0.0247,-1.63179 -0.78026,-3.55046 -1.86061,-4.72243 l -6.57315,-6.90759 c -0.72315,-0.71822 -1.44242,-2.54024 -1.41434,-3.5881 V 91.318512 h -0.77057 -0.77156 z m 8.75224,-59.120558 c 0,-1.793574 1.38626,-3.24427 3.09003,-3.24427 1.70574,0 3.08811,1.450696 3.08811,3.24427 0,1.800667 -1.38237,3.250325 -3.08811,3.250325 -1.70377,0 -3.09003,-1.449658 -3.09003,-3.250325 m 5.02616,68.666088 c 0.72025,0.72331 1.43755,2.53823 1.41143,3.582 v 137.72999 h 1.54309 V 121.08327 c -0.0247,-1.63381 -0.78316,-3.55247 -1.86447,-4.73156 l -5.73382,-6.02863 c -0.72316,-0.7101 -1.44049,-2.5362 -1.40855,-3.582 v -8.386786 c -0.0319,-1.044816 0.68539,-2.86682 1.40855,-3.585041 l 1.00387,-1.049885 c 1.08132,-1.178043 1.83252,-3.097741 1.8635,-4.734612 V 53.416187 c 2.65056,-0.22378 4.73092,-2.545337 4.73092,-5.38672 0,-2.991971 -2.30302,-5.417258 -5.14912,-5.417258 -2.84416,0 -5.14619,2.425287 -5.14619,5.417258 0,2.576886 1.72023,4.734619 4.01647,5.274801 v 35.680488 c 0.0311,1.049877 -0.68926,2.867827 -1.41047,3.587086 l -1.00388,1.047839 c -1.08132,1.182135 -1.83251,3.099755 -1.86157,4.734613 v 8.386786 c 0.0291,1.63077 0.78025,3.55555 1.86157,4.73359 z m 13.51217,-66.766738 c 1.70766,0 3.08715,1.453752 3.08715,3.242192 0,1.793546 -1.37949,3.25644 -3.08715,3.25644 -1.70474,0 -3.08616,-1.462894 -3.08616,-3.25644 0,-1.78844 1.38142,-3.242192 3.08616,-3.242192 m -9.59153,10.1498 c -1.08131,1.174 -1.83737,3.09469 -1.86544,4.722418 v 25.307852 c 0.028,1.039716 -0.69121,2.858695 -1.40951,3.585052 l -2.2614,2.376459 c -1.08227,1.168888 -1.83832,3.088572 -1.86447,4.722417 v 2.16382 c 0.0275,1.63992 0.7822,3.56165 1.86447,4.73461 l 6.76384,7.1121 c 0.72121,0.71315 1.44242,2.53822 1.41048,3.58197 v 114.72841 h 1.54405 0.003 V 119.19104 c -0.0275,-1.64194 -0.78704,-3.55756 -1.8674,-4.73051 l -6.76284,-7.10803 c -0.72217,-0.72333 -1.44145,-2.54027 -1.41242,-3.59015 v -2.16382 c -0.0291,-1.04276 0.69025,-2.863752 1.41242,-3.574885 l 2.25654,-2.38459 c 1.0852,-1.167898 1.84125,-3.093653 1.86642,-4.724451 l -0.003,-25.30785 c -0.022,-1.041752 0.69218,-2.858685 1.4153,-3.57691 l 4.70186,-4.945216 c 0.92257,0.92069 2.1704,1.500555 3.54408,1.500555 2.84415,0 5.14621,-2.430363 5.14621,-5.41723 0,-2.986866 -2.30206,-5.411114 -5.14621,-5.411114 -2.84512,0 -5.15105,2.424248 -5.15105,5.411114 0,1.230956 0.39886,2.363229 1.05905,3.275761 l -0.51596,-0.537126 z M 131.41138,269.36492 c -1.70768,0 -3.092,-1.45275 -3.092,-3.24323 0,-1.79862 1.38432,-3.25135 3.092,-3.25135 1.70476,0 3.08714,1.45273 3.08714,3.25135 0,1.79048 -1.38238,3.24323 -3.08714,3.24323 M 148.66027,91.042791 c -1.70379,0 -3.0891,-1.453754 -3.0891,-3.239137 0,-1.792529 1.38531,-3.247299 3.0891,-3.247299 1.70766,0 3.08714,1.45477 3.08714,3.247299 0,1.785383 -1.37948,3.239137 -3.08714,3.239137 M 131.85958,259.95471 v -34.08739 c -0.028,-1.04276 0.69506,-2.86171 1.41049,-3.58097 l 52.33909,-55.00958 c 1.08131,-1.16993 1.84028,-3.08859 1.8674,-4.72139 v -41.19642 c -0.0275,-1.64296 -0.78609,-3.55961 -1.8674,-4.73357 L 168.70685,98.855828 c -0.72218,-0.716199 -1.43756,-2.538203 -1.40949,-3.578953 V 94.57088 c 0,-1.371365 -0.0872,-3.56572 -0.18386,-4.928921 -0.0911,-0.570725 -0.42885,-0.669404 -0.52856,-0.718228 -0.37561,-0.132359 -0.77154,-0.177926 -2.52277,-0.191188 h -10.78804 c 0.17918,-0.548353 0.27976,-1.135335 0.27976,-1.746749 0,-2.986861 -2.30785,-5.407075 -5.14912,-5.407075 -2.84416,0 -5.15201,2.420214 -5.15201,5.407075 0,2.994972 2.30785,5.412127 5.15201,5.412127 1.63313,0 3.08619,-0.79755 4.02809,-2.044806 h 11.62931 c 0.74736,0 1.24009,0.02312 1.55083,0.04467 0.0785,1.301176 0.13446,3.048926 0.13446,4.173067 v 0.705974 c 0.0291,1.635858 0.78509,3.548412 1.86932,4.733604 l 16.89844,17.75937 c 0.72316,0.71822 1.44146,2.54226 1.4163,3.58911 v 41.19645 c 0.0247,1.03971 -0.69314,2.85866 -1.4163,3.57792 l -52.33619,55.00146 c -1.07746,1.17195 -1.83741,3.10181 -1.86353,4.73257 v 34.10365 c -2.44338,0.42624 -4.31368,2.64909 -4.31368,5.32872 0,2.99296 2.30593,5.41623 5.14816,5.41623 2.84609,0 5.1491,-2.42327 5.1491,-5.41623 0,-2.73252 -1.92935,-4.98385 -4.43953,-5.34499 m 13.45798,-127.50187 c 1.70476,0 3.08716,1.45172 3.08716,3.23813 0,1.79966 -1.3824,3.25136 -3.08716,3.25136 -1.70572,0 -3.09488,-1.4517 -3.09488,-3.25136 0,-1.78641 1.38916,-3.23813 3.09488,-3.23813 m -5.40954,2.42633 c 0,2.99499 2.30498,5.41823 5.1501,5.41823 2.84514,0 5.14621,-2.42324 5.14621,-5.41823 0,-2.9828 -2.30107,-5.40708 -5.14621,-5.40708 -2.84512,0 -5.1501,2.42428 -5.1501,5.40708 m 28.58102,-5.13442 c 0,-1.79967 1.38142,-3.24933 3.08425,-3.24933 1.71056,0 3.09293,1.44966 3.09293,3.24933 0,1.79455 -1.38237,3.24423 -3.09293,3.24423 -1.70283,0 -3.08425,-1.44968 -3.08425,-3.24423 m 7.97778,-0.81489 c 0,-2.99195 -2.30302,-5.405 -5.14621,-5.405 -2.84416,0 -5.14814,2.41305 -5.14814,5.405 0,2.98993 2.30398,5.41114 5.14814,5.41114 2.84319,0 5.14621,-2.42121 5.14621,-5.41114 m -15.44443,-8.12126 c -1.70766,0 -3.09392,-1.45274 -3.09392,-3.24323 0,-1.79149 1.38626,-3.24321 3.09392,-3.24321 1.70378,0 3.0881,1.45172 3.0881,3.24321 0,1.79049 -1.38432,3.24323 -3.0881,3.24323 m 4.88774,-4.05502 c 0,-2.98789 -2.30206,-5.40911 -5.14524,-5.40911 -2.84417,0 -5.15105,2.42122 -5.15105,5.40911 0,2.99294 2.30688,5.41111 5.15105,5.41111 2.84318,0 5.14524,-2.41817 5.14524,-5.41111 m 0.77445,-40.58297 c 1.70571,0 3.09197,1.449658 3.09197,3.238127 0,1.797612 -1.38626,3.248309 -3.09197,3.248309 -1.7067,0 -3.08811,-1.450697 -3.08811,-3.248309 0,-1.788469 1.38141,-3.238127 3.08811,-3.238127 m 5.66606,-33.016162 c 1.70378,0 3.08711,1.452744 3.08711,3.251363 0,1.788471 -1.38333,3.238159 -3.08711,3.238159 -1.58473,0 -2.87418,-1.247249 -3.05425,-2.862781 v -0.375378 h -0.0356 c 0,-1.798619 1.38627,-3.251363 3.09006,-3.251363 m -5.92258,40.856631 c 2.84221,0 5.14523,-2.416117 5.14523,-5.412127 0,-1.891216 -0.92644,-3.552483 -2.32528,-4.523007 h 0.0486 V 50.127161 c 0.80738,0.55342 1.76381,0.872851 2.79672,0.872851 2.84415,0 5.14621,-2.417154 5.14621,-5.409126 0,-2.994999 -2.30206,-5.411115 -5.14621,-5.411115 -2.84511,0 -5.1491,2.416116 -5.1491,5.411115 0,1.070215 0.29815,2.065195 0.80833,2.905488 v 24.881639 c -0.42306,-0.124001 -0.86642,-0.190327 -1.3243,-0.190327 -2.84611,0 -5.15104,2.429381 -5.15104,5.411144 0,2.996008 2.30493,5.412126 5.15104,5.412126 m -22.914,-45.727565 c 1.7028,0 3.08423,1.449689 3.08423,3.251365 0,1.793516 -1.38143,3.242193 -3.08423,3.242193 -1.70961,0 -3.09296,-1.448677 -3.09296,-3.242193 0,-1.801676 1.38335,-3.251365 3.09296,-3.251365 m -0.26124,7.844564 c 2.84415,0 5.14909,-2.424277 5.14909,-5.407078 0,-2.99497 -2.30494,-5.408059 -5.14909,-5.408059 -2.84028,0 -5.14912,2.413089 -5.14912,5.408059 0,2.982801 2.30884,5.407078 5.14912,5.407078 m 10.30113,6.2179 c 0.003,-1.784402 1.38624,-3.239166 3.08711,-3.239166 1.70865,0 3.09006,1.454764 3.09006,3.255431 0,1.788441 -1.38141,3.238127 -3.09006,3.238127 -1.70087,0 -3.08423,-1.449686 -3.08711,-3.234061 z m 2.83252,4.614568 c 2.83933,0 5.15008,-2.429381 5.15008,-5.415211 0,-2.991942 -2.31075,-5.417257 -5.15008,-5.417257 -2.84512,0 -5.15006,2.425315 -5.15006,5.417257 H 48.188661 v 1.622627 H 151.47476 c 0.65442,2.198422 2.60797,3.792584 4.91195,3.792584 m 29.09405,5.676651 c 1.71058,0 3.0891,1.453753 3.0891,3.24525 0,1.798621 -1.37852,3.253383 -3.0891,3.253383 -1.70571,0 -3.0881,-1.454762 -3.0881,-3.253383 0,-1.791497 1.38239,-3.24525 3.0881,-3.24525 m -0.25547,7.848629 c 0.49468,0 0.97388,-0.07844 1.42886,-0.223778 v 30.644805 c 0.031,1.64094 0.78799,3.55348 1.86643,4.73156 l 6.71735,7.06121 c 0.71829,0.71823 1.43854,2.53517 1.40951,3.57893 v 54.69322 c 0.0291,1.09057 -0.57601,2.75285 -1.07649,3.2361 -0.93417,1.02748 -1.49855,2.79049 -1.53049,4.3816 v 114.3143 h 1.54696 V 178.58937 c -0.0275,-1.10276 0.57307,-2.75694 1.07646,-3.24118 0.93225,-1.02647 1.50437,-2.79051 1.52954,-4.37651 v -54.69321 c -0.0247,-1.63483 -0.78605,-3.55349 -1.86641,-4.72343 l -6.71447,-7.06529 c -0.72025,-0.71924 -1.4395,-2.53721 -1.41338,-3.583 V 69.484757 c 1.30979,-0.981714 2.17525,-2.589083 2.17525,-4.414148 0,-2.983811 -2.3098,-5.408088 -5.14912,-5.408088 -2.8461,0 -5.152,2.424277 -5.152,5.408088 0,2.990933 2.3059,5.41521 5.152,5.41521 m 25.48803,65.747411 c 0,-1.79049 1.3853,-3.24425 3.09197,-3.24425 1.70379,0 3.08909,1.45376 3.08909,3.24425 0,1.79758 -1.3853,3.25238 -3.08909,3.25238 -1.70667,0 -3.09197,-1.4548 -3.09197,-3.25238 m 7.98454,-0.80877 c 0,-2.98889 -2.30688,-5.41216 -5.15296,-5.41216 -2.84706,0 -5.14912,2.42327 -5.14912,5.41216 0,2.98889 2.30206,5.41416 5.14912,5.41416 2.84608,0 5.15296,-2.42527 5.15296,-5.41416 m 37.58932,-28.94687 c -1.70474,0 -3.08616,-1.45475 -3.08616,-3.25543 0,-1.78947 1.38142,-3.24016 3.08616,-3.24016 1.70766,0 3.08715,1.45069 3.08715,3.24016 0,1.80068 -1.37949,3.25543 -3.08715,3.25543 m -0.25466,-9.478362 c -2.84511,0 -5.15104,2.425284 -5.15104,5.413162 0,2.98583 2.2982,5.3979 5.13266,5.41519 h -1.26912 v 167.7613 h 1.54211 v -167.7613 h -0.24011 c 2.83543,-0.0173 5.13166,-2.42936 5.13166,-5.41519 0,-2.987878 -2.30206,-5.413162 -5.14621,-5.413162 m -22.91589,-10.27802 c 0,1.788474 -1.38627,3.246295 -3.09392,3.246295 -1.70184,0 -3.08619,-1.457821 -3.08619,-3.246295 0,-1.797575 1.38435,-3.248302 3.08619,-3.248302 1.70765,0 3.09392,1.450727 3.09392,3.248302 m -8.49666,-0.813845 c 0,2.982792 2.30299,5.411149 5.14814,5.411149 2.84416,0 5.14813,-2.428357 5.14813,-5.411149 0,-2.989895 -2.30397,-5.408088 -5.14813,-5.408088 -2.84515,0 -5.14814,2.418193 -5.14814,5.408088 m 0.77058,-17.590466 c -1.70574,0 -3.09297,-1.458858 -3.09297,-3.246288 0,-1.789451 1.38723,-3.243231 3.09297,-3.243231 1.70571,0 3.08907,1.45378 3.08907,3.243231 0,1.78743 -1.38336,3.246288 -3.08907,3.246288 m -0.2574,-9.469236 c -2.8432,0 -5.15104,2.421221 -5.15104,5.409097 0,1.172963 0.35333,2.246235 0.9545,3.126239 -0.20526,0.218876 -0.46468,0.484238 -0.74348,0.78435 -0.89159,0.995959 -1.40271,2.707085 -1.43273,4.276794 v 33.693669 c 0.0247,1.63179 0.78317,3.55453 1.86352,4.72239 l 11.5925,12.19057 c 0.72121,0.7162 1.44146,2.5382 1.41242,3.57791 v 116.48834 h 1.54598 V 126.62868 c -0.0275,-1.6328 -0.78413,-3.55148 -1.86254,-4.72952 l -11.59639,-12.18037 c -0.71734,-0.71928 -1.43564,-2.53926 -1.41434,-3.58098 V 72.444141 c -0.0247,-1.106839 0.55085,-2.727417 0.98066,-3.132323 0.27493,-0.276839 0.52758,-0.545288 0.72312,-0.755858 0.87225,0.694838 1.9526,1.120075 3.12782,1.120075 2.84125,0 5.14718,-2.425316 5.14718,-5.419277 0,-2.987876 -2.30593,-5.409097 -5.14718,-5.409097" />
  </g>
</svg>
